<?xml version="1.0" standalone="no"?><!DOCTYPE svg PUBLIC "-//W3C//DTD SVG 1.1//EN" "http://www.w3.org/Graphics/SVG/1.1/DTD/svg11.dtd"><svg t="1537509520307" class="icon" style="" viewBox="0 0 1024 1024" version="1.1" xmlns="http://www.w3.org/2000/svg" p-id="4988" xmlns:xlink="http://www.w3.org/1999/xlink" width="16" height="16"><defs><style type="text/css"></style></defs><path d="M926.272 487.424l-45.056 0c-13.632 22.656-54.976 88.704-57.856 94.08-3.136 5.632-10.368 5.76-13.504 0-4.032-7.488-44.48-72.384-57.728-94.08L387.712 487.424c-27.52 0-49.728-22.08-49.728-49.216L337.984 84.096c0-27.136 22.272-49.216 49.728-49.216l538.56 0c27.584 0 49.856 22.08 49.856 49.216l0 354.112C976.128 465.344 953.792 487.424 926.272 487.424L926.272 487.424zM946.176 84.032c0-10.816-8.96-19.648-19.968-19.648L387.712 64.384c-10.88 0-19.904 8.832-19.904 19.648l0 354.176c0 10.88 9.024 19.648 19.904 19.648l538.56 0c11.008 0 19.968-8.768 19.968-19.648L946.24 84.032 946.176 84.032zM482.944 296l362.624 0 0 43.52L482.944 339.52 482.944 296 482.944 296zM482.944 165.44l362.624 0 0 43.52L482.944 208.96 482.944 165.44 482.944 165.44zM91.328 223.424l0 522.176c0 16 12.992 28.992 29.056 28.992l638.208 0c16 0 28.928-12.992 28.928-28.992l0-101.504 43.584 0 0 101.504c0 40.128-32.512 72.512-72.512 72.512l-65.6 0c-19.776 33.344-79.808 130.752-84.096 138.752-4.416 8.256-15.104 8.384-19.584 0-5.824-10.88-64.768-106.752-84.032-138.752L120.384 818.112c-40.064 0-72.576-32.384-72.576-72.512L47.808 223.424c0-40.064 32.512-72.512 72.576-72.512L250.88 150.912l0 43.52L120.384 194.432C104.32 194.432 91.328 207.36 91.328 223.424L91.328 223.424z" p-id="4989" fill="#8a8a8a"></path></svg>