<?xml version="1.0" standalone="no"?><!DOCTYPE svg PUBLIC "-//W3C//DTD SVG 1.1//EN" "http://www.w3.org/Graphics/SVG/1.1/DTD/svg11.dtd"><svg t="1537946027751" class="icon" style="" viewBox="0 0 1024 1024" version="1.1" xmlns="http://www.w3.org/2000/svg" p-id="1838" xmlns:xlink="http://www.w3.org/1999/xlink" width="32" height="32"><defs><style type="text/css"></style></defs><path d="M0 582.4c0 70.4 57.6 128 128 128L128 448C57.6 448 0 505.6 0 582.4z" p-id="1839" fill="#8a8a8a"></path><path d="M896 448l0 262.4c70.4 0 128-57.6 128-128C1024 512 966.4 448 896 448z" p-id="1840" fill="#8a8a8a"></path><path d="M294.4 704c0 0 76.8-57.6 89.6-153.6C384 518.4 377.6 448 288 448 256 448 230.4 460.8 204.8 473.6l0 57.6C224 512 249.6 499.2 275.2 499.2c25.6 0 44.8 12.8 44.8 44.8 0 12.8-6.4 25.6-12.8 38.4C300.8 595.2 288 608 268.8 627.2L192 704l0 64 192 0 0-64L294.4 704z" p-id="1841" fill="#8a8a8a"></path><path d="M396.8 704 512 704l0 64 64 0 0-64 32 0 0-64L576 640 576 448 512 448l-115.2 192L396.8 704zM512 576l0 64L473.6 640C473.6 640 512 576 512 576z" p-id="1842" fill="#8a8a8a"></path><path d="M640 320l0 256 64 0L704 454.4c0-25.6 64-25.6 64 0L768 576l64 0L832 448c0-44.8-44.8-70.4-83.2-64C710.4 384 704 396.8 704 396.8L704 320 640 320z" p-id="1843" fill="#8a8a8a"></path><path d="M806.4 793.6c-51.2 51.2-115.2 96-192 115.2-19.2-25.6-51.2-44.8-89.6-44.8-57.6 0-102.4 38.4-102.4 76.8 0 44.8 44.8 76.8 102.4 76.8 44.8 0 83.2-19.2 96-51.2 89.6-19.2 172.8-70.4 230.4-134.4 12.8-12.8 12.8-32 0-44.8C844.8 780.8 819.2 780.8 806.4 793.6z" p-id="1844" fill="#8a8a8a"></path><path d="M102.4 352c-6.4 0-12.8 0-12.8-6.4C70.4 339.2 64 320 70.4 300.8c115.2-211.2 384-294.4 608-192 83.2 38.4 153.6 96 198.4 166.4 6.4 6.4 12.8 19.2 12.8 25.6C902.4 320 896 339.2 883.2 345.6c-12.8 6.4-32 6.4-44.8-12.8C838.4 326.4 832 320 825.6 313.6c-38.4-64-102.4-115.2-172.8-147.2C460.8 83.2 230.4 153.6 128 332.8 121.6 345.6 108.8 352 102.4 352z" p-id="1845" fill="#8a8a8a"></path></svg>