<?xml version="1.0" standalone="no"?><!DOCTYPE svg PUBLIC "-//W3C//DTD SVG 1.1//EN" "http://www.w3.org/Graphics/SVG/1.1/DTD/svg11.dtd"><svg t="1537506518537" class="icon" style="" viewBox="0 0 1024 1024" version="1.1" xmlns="http://www.w3.org/2000/svg" p-id="1522" xmlns:xlink="http://www.w3.org/1999/xlink" width="16" height="16"><defs><style type="text/css"></style></defs><path d="M459.604603 787.47005a39.264286 39.264286 0 0 1-31.553064-62.712698l263.912659-356.998131-316.553556 297.747615a39.342972 39.342972 0 0 1-53.978558-57.283368L956.58503 10.839776a39.342972 39.342972 0 0 1 58.621029 52.011409L491.315039 771.496803a39.1856 39.1856 0 0 1-31.710436 15.973247z" fill="#999999" p-id="1523"></path><path d="M404.052326 810.446346a117.871545 117.871545 0 0 1-83.485787-201.357333 39.342972 39.342972 0 0 1 55.630963 55.630963 39.342972 39.342972 0 0 0 55.630963 55.630963 39.342972 39.342972 0 0 1 55.630963 55.630963 117.950231 117.950231 0 0 1-83.407102 34.464444zM185.856201 864.50359a39.342972 39.342972 0 0 1 0 78.685945c-8.262024 0-18.412511 0.236058-30.05803 0.472115a4913.937248 4913.937248 0 0 1-9.363628 0.236058c1.101603-13.533982 0.629488-24.864759 0.314744-32.497295l-0.236058-7.475165a39.342972 39.342972 0 0 1 39.342972-39.421658m0-78.685945a118.028917 118.028917 0 0 0-118.028917 118.028917c0 30.294089 12.117635 82.8563-67.827284 114.802794 38.713485 3.462182 74.358218 4.406413 104.888364 4.406413 34.464444 0 62.47664-1.180289 80.967837-1.18029a118.028917 118.028917 0 0 0 0-236.057834zM511.458641 1023.055769a39.342972 39.342972 0 0 1 0-78.685945c65.073276 0 127.86466-14.242156 185.3054-41.467493a210.799646 210.799646 0 0 1-65.860136-71.840267c-31.395692-58.621029-20.851775-120.861611 29.113799-170.827186 51.775352-51.696666 115.983083-62.555326 175.784401-29.743288 26.910593 14.792958 50.83112 37.611882 68.535458 62.791384A429.310514 429.310514 0 0 0 944.231337 511.597128a39.342972 39.342972 0 1 1 78.685944 0 507.760401 507.760401 0 0 1-95.131307 297.196813 38.713485 38.713485 0 0 1-47.998426 12.983181 39.264286 39.264286 0 0 1-22.346808-44.378873c0.786859-12.117635-23.527097-61.689781-65.151963-80.653093-26.831907-12.511065-51.303236-6.373562-76.561424 19.120684-24.313957 24.313957-29.821973 47.762368-17.46828 73.964789 18.491197 39.57903 66.253565 68.063342 83.407102 65.073276a38.634799 38.634799 0 0 1 43.592013 22.740238 39.500344 39.500344 0 0 1-12.983181 47.683682A507.917773 507.917773 0 0 1 511.458641 1023.055769z" fill="#999999" p-id="1524"></path><path d="M196.714862 432.911183m-39.342973 0a39.342972 39.342972 0 1 0 78.685945 0 39.342972 39.342972 0 1 0-78.685945 0Z" fill="#999999" p-id="1525"></path><path d="M432.772696 196.853349m-39.342972 0a39.342972 39.342972 0 1 0 78.685944 0 39.342972 39.342972 0 1 0-78.685944 0Z" fill="#999999" p-id="1526"></path><path d="M67.040425 710.593882a39.421658 39.421658 0 0 1-37.06108-26.045048A512.088128 512.088128 0 0 1 719.110849 44.045244a39.342972 39.342972 0 0 1-32.02518 71.99764A428.366283 428.366283 0 0 0 511.458641 78.824432a433.244812 433.244812 0 0 0-407.435822 579.128553 39.342972 39.342972 0 0 1-36.982394 52.640897z" fill="#999999" p-id="1527"></path><path d="M275.400807 275.539294m-39.342973 0a39.342972 39.342972 0 1 0 78.685945 0 39.342972 39.342972 0 1 0-78.685945 0Z" fill="#999999" p-id="1528"></path></svg>